+ filenameToUse=/home/horvathandras/vatic/vatic/public/videouploads/DJI_0052_30m_szarvasragas_jo_homokmegy_20180603_napos_napraforgo_T3.avi
+ filenameNoDot=DJI_0052_30m_szarvasragas_jo_homokmegy_20180603_napos_napraforgo_T3
+ FullUploadPath=/home/horvathandras/vatic/vatic/public/videouploads/DJI_0052_30m_szarvasragas_jo_homokmegy_20180603_napos_napraforgo_T3.avi
+ VideoDataDir=/home/horvathandras/vatic/vatic/videos
+ AvailableObjectTypes='PozitívROI NegatívROI Túrás ~Friss ~1-2Hetes ~Régebbi ~Egyéb1 ~Egyéb2 ~Egyéb3 Rágás ~Friss ~1-2Hetes ~Régebbi ~Egyéb1 ~Egyéb2 ~Egyéb3 Törés ~Friss ~1-2Hetes ~Régebbi ~Egyéb1 ~Egyéb2 ~Egyéb3 Taposás ~Friss ~1-2Hetes ~Régebbi ~Egyéb1 ~Egyéb2 ~Egyéb3 EgészségesNövény Egyéb1 Egyéb2 Egyéb3 Egyéb4 Egyéb5 Bizonytalan Művelőút Gktaposás Vetőhiba Széldöntés Jégkár Belvíz Aszály Erózió EgyszikűGyom KétszikűGyom EgyébNövvédelmiPR'
++ dirname /home/horvathandras/vatic/vatic/vatic_publisher.sh
+ cd /home/horvathandras/vatic/vatic
+ touch /home/horvathandras/vatic/vatic/public/videouploads/DJI_0052_30m_szarvasragas_jo_homokmegy_20180603_napos_napraforgo_T3.avi
+ chmod 744 /home/horvathandras/vatic/vatic/public/videouploads/DJI_0052_30m_szarvasragas_jo_homokmegy_20180603_napos_napraforgo_T3.avi
+ mkdir /home/horvathandras/vatic/vatic/videos/DJI_0052_30m_szarvasragas_jo_homokmegy_20180603_napos_napraforgo_T3
+ turkic extract /home/horvathandras/vatic/vatic/public/videouploads/DJI_0052_30m_szarvasragas_jo_homokmegy_20180603_napos_napraforgo_T3.avi /home/horvathandras/vatic/vatic/videos/DJI_0052_30m_szarvasragas_jo_homokmegy_20180603_napos_napraforgo_T3 --no-resize
ffmpeg version 2.8.14-0ubuntu0.16.04.1 Copyright (c) 2000-2018 the FFmpeg developers
  built with gcc 5.4.0 (Ubuntu 5.4.0-6ubuntu1~16.04.9) 20160609
  configuration: --prefix=/usr --extra-version=0ubuntu0.16.04.1 --build-suffix=-ffmpeg --toolchain=hardened --libdir=/usr/lib/x86_64-linux-gnu --incdir=/usr/include/x86_64-linux-gnu --cc=cc --cxx=g++ --enable-gpl --enable-shared --disable-stripping --disable-decoder=libopenjpeg --disable-decoder=libschroedinger --enable-avresample --enable-avisynth --enable-gnutls --enable-ladspa --enable-libass --enable-libbluray --enable-libbs2b --enable-libcaca --enable-libcdio --enable-libflite --enable-libfontconfig --enable-libfreetype --enable-libfribidi --enable-libgme --enable-libgsm --enable-libmodplug --enable-libmp3lame --enable-libopenjpeg --enable-libopus --enable-libpulse --enable-librtmp --enable-libschroedinger --enable-libshine --enable-libsnappy --enable-libsoxr --enable-libspeex --enable-libssh --enable-libtheora --enable-libtwolame --enable-libvorbis --enable-libvpx --enable-libwavpack --enable-libwebp --enable-libx265 --enable-libxvid --enable-libzvbi --enable-openal --enable-opengl --enable-x11grab --enable-libdc1394 --enable-libiec61883 --enable-libzmq --enable-frei0r --enable-libx264 --enable-libopencv
  libavutil      54. 31.100 / 54. 31.100
  libavcodec     56. 60.100 / 56. 60.100
  libavformat    56. 40.101 / 56. 40.101
  libavdevice    56.  4.100 / 56.  4.100
  libavfilter     5. 40.101 /  5. 40.101
  libavresample   2.  1.  0 /  2.  1.  0
  libswscale      3.  1.101 /  3.  1.101
  libswresample   1.  2.101 /  1.  2.101
  libpostproc    53.  3.100 / 53.  3.100
Input #0, mov,mp4,m4a,3gp,3g2,mj2, from '/home/horvathandras/vatic/vatic/public/videouploads/DJI_0052_30m_szarvasragas_jo_homokmegy_20180603_napos_napraforgo_T3.avi':
  Metadata:
    major_brand     : qt  
    minor_version   : 537986816
    compatible_brands: qt  
    creation_time   : 2018-06-03 08:37:45
    location        : +46.518660+19.146285+29.900
    location-{    : +46.518660+19.146285+29.900
    comment         : DE=None, Mode=P, DSW=0001
  Duration: 00:00:23.48, start: 0.000000, bitrate: 101194 kb/s
    Stream #0:0(eng): Video: h264 (High) (avc1 / 0x31637661), yuv420p(tv, bt709), 4096x2160 [SAR 1:1 DAR 256:135], 101009 kb/s, 50 fps, 50 tbr, 50k tbn, 100 tbc (default)
    Metadata:
      creation_time   : 2018-06-03 08:37:45
      handler_name    : DJI.AVC
      encoder         : AVC encoder
    Stream #0:1(eng): Data: none (priv / 0x76697270), 177 kb/s
    Metadata:
      creation_time   : 2018-06-03 08:37:45
      handler_name    : DJI.Meta
Please use -b:a or -b:v, -b is ambiguous
[swscaler @ 0x1b5a280] deprecated pixel format used, make sure you did set range correctly
Output #0, image2, to '/tmp/pyvision-ffmpeg-263543439/%d.jpg':
  Metadata:
    major_brand     : qt  
    minor_version   : 537986816
    compatible_brands: qt  
    comment         : DE=None, Mode=P, DSW=0001
    location        : +46.518660+19.146285+29.900
    location-{    : +46.518660+19.146285+29.900
    encoder         : Lavf56.40.101
    Stream #0:0(eng): Video: mjpeg, yuvj420p(pc), 4096x2160 [SAR 1:1 DAR 256:135], q=2-31, 10000 kb/s, 50 fps, 50 tbn, 50 tbc (default)
    Metadata:
      creation_time   : 2018-06-03 08:37:45
      handler_name    : DJI.AVC
      encoder         : Lavc56.60.100 mjpeg
Stream mapping:
  Stream #0:0 -> #0:0 (h264 (native) -> mjpeg (native))
Press [q] to stop, [?] for help
frame=    1 fps=0.7 q=19.5 size=N/A time=00:00:00.02 bitrate=N/A    frame=    3 fps=1.3 q=23.8 size=N/A time=00:00:00.06 bitrate=N/A    frame=    6 fps=1.9 q=24.8 size=N/A time=00:00:00.12 bitrate=N/A    frame=    8 fps=2.2 q=24.8 size=N/A time=00:00:00.16 bitrate=N/A    frame=   10 fps=2.3 q=24.8 size=N/A time=00:00:00.20 bitrate=N/A    frame=   12 fps=2.4 q=24.8 size=N/A time=00:00:00.24 bitrate=N/A    frame=   15 fps=2.6 q=24.8 size=N/A time=00:00:00.30 bitrate=N/A    frame=   17 fps=2.7 q=24.8 size=N/A time=00:00:00.34 bitrate=N/A    frame=   19 fps=2.7 q=24.8 size=N/A time=00:00:00.38 bitrate=N/A    frame=   21 fps=2.8 q=24.8 size=N/A time=00:00:00.42 bitrate=N/A    frame=   24 fps=2.9 q=24.8 size=N/A time=00:00:00.48 bitrate=N/A    frame=   26 fps=2.9 q=24.8 size=N/A time=00:00:00.52 bitrate=N/A    frame=   28 fps=3.0 q=24.8 size=N/A time=00:00:00.56 bitrate=N/A    frame=   30 fps=3.0 q=24.8 size=N/A time=00:00:00.60 bitrate=N/A    frame=   33 fps=3.1 q=24.8 size=N/A time=00:00:00.66 bitrate=N/A    frame=   36 fps=3.2 q=24.8 size=N/A time=00:00:00.72 bitrate=N/A    frame=   38 fps=3.1 q=24.8 size=N/A time=00:00:00.76 bitrate=N/A    frame=   40 fps=3.2 q=24.8 size=N/A time=00:00:00.80 bitrate=N/A    frame=   42 fps=3.2 q=24.8 size=N/A time=00:00:00.84 bitrate=N/A    frame=   45 fps=3.3 q=24.8 size=N/A time=00:00:00.90 bitrate=N/A    frame=   48 fps=3.4 q=24.8 size=N/A time=00:00:00.96 bitrate=N/A    frame=   50 fps=3.4 q=24.8 size=N/A time=00:00:01.00 bitrate=N/A    frame=   52 fps=3.4 q=24.8 size=N/A time=00:00:01.04 bitrate=N/A    frame=   54 fps=3.4 q=24.8 size=N/A time=00:00:01.08 bitrate=N/A    frame=   56 fps=3.4 q=24.8 size=N/A time=00:00:01.12 bitrate=N/A    frame=   59 fps=3.4 q=24.8 size=N/A time=00:00:01.18 bitrate=N/A    frame=   61 fps=3.4 q=24.8 size=N/A time=00:00:01.22 bitrate=N/A    frame=   64 fps=3.4 q=24.8 size=N/A time=00:00:01.28 bitrate=N/A    frame=   66 fps=3.5 q=24.8 size=N/A time=00:00:01.32 bitrate=N/A    frame=   69 fps=3.5 q=24.8 size=N/A time=00:00:01.38 bitrate=N/A    frame=   71 fps=3.5 q=24.8 size=N/A time=00:00:01.42 bitrate=N/A    frame=   73 fps=3.5 q=24.8 size=N/A time=00:00:01.46 bitrate=N/A    frame=   75 fps=3.5 q=24.8 size=N/A time=00:00:01.50 bitrate=N/A    frame=   78 fps=3.5 q=24.8 size=N/A time=00:00:01.56 bitrate=N/A    frame=   81 fps=3.6 q=24.8 size=N/A time=00:00:01.62 bitrate=N/A    frame=   84 fps=3.6 q=24.8 size=N/A time=00:00:01.68 bitrate=N/A    frame=   86 fps=3.6 q=24.8 size=N/A time=00:00:01.72 bitrate=N/A    frame=   88 fps=3.6 q=24.8 size=N/A time=00:00:01.76 bitrate=N/A    frame=   90 fps=3.5 q=24.8 size=N/A time=00:00:01.80 bitrate=N/A    frame=   92 fps=3.5 q=24.8 size=N/A time=00:00:01.84 bitrate=N/A    frame=   95 fps=3.6 q=24.8 size=N/A time=00:00:01.90 bitrate=N/A    frame=   97 fps=3.6 q=24.8 size=N/A time=00:00:01.94 bitrate=N/A    frame=  100 fps=3.6 q=24.8 size=N/A time=00:00:02.00 bitrate=N/A    frame=  103 fps=3.6 q=24.8 size=N/A time=00:00:02.06 bitrate=N/A    frame=  105 fps=3.6 q=24.8 size=N/A time=00:00:02.10 bitrate=N/A    frame=  107 fps=3.6 q=24.8 size=N/A time=00:00:02.14 bitrate=N/A    frame=  110 fps=3.6 q=24.8 size=N/A time=00:00:02.20 bitrate=N/A    frame=  113 fps=3.6 q=24.8 size=N/A time=00:00:02.26 bitrate=N/A    frame=  116 fps=3.7 q=24.8 size=N/A time=00:00:02.32 bitrate=N/A    frame=  119 fps=3.7 q=24.8 size=N/A time=00:00:02.38 bitrate=N/A    frame=  122 fps=3.7 q=24.8 size=N/A time=00:00:02.44 bitrate=N/A    frame=  124 fps=3.7 q=24.8 size=N/A time=00:00:02.48 bitrate=N/A    frame=  127 fps=3.7 q=24.8 size=N/A time=00:00:02.54 bitrate=N/A    frame=  130 fps=3.7 q=24.8 size=N/A time=00:00:02.60 bitrate=N/A    frame=  132 fps=3.7 q=24.8 size=N/A time=00:00:02.64 bitrate=N/A    frame=  134 fps=3.7 q=24.8 size=N/A time=00:00:02.68 bitrate=N/A    frame=  137 fps=3.7 q=24.8 size=N/A time=00:00:02.74 bitrate=N/A    frame=  139 fps=3.7 q=24.8 size=N/A time=00:00:02.78 bitrate=N/A    frame=  141 fps=3.7 q=24.8 size=N/A time=00:00:02.82 bitrate=N/A    frame=  143 fps=3.7 q=24.8 size=N/A time=00:00:02.86 bitrate=N/A    frame=  146 fps=3.7 q=24.8 size=N/A time=00:00:02.92 bitrate=N/A    frame=  148 fps=3.7 q=24.8 size=N/A time=00:00:02.96 bitrate=N/A    frame=  150 fps=3.7 q=24.8 size=N/A time=00:00:03.00 bitrate=N/A    frame=  152 fps=3.7 q=24.8 size=N/A time=00:00:03.04 bitrate=N/A    frame=  154 fps=3.7 q=24.8 size=N/A time=00:00:03.08 bitrate=N/A    frame=  157 fps=3.7 q=24.8 size=N/A time=00:00:03.14 bitrate=N/A    frame=  159 fps=3.7 q=24.8 size=N/A time=00:00:03.18 bitrate=N/A    frame=  161 fps=3.7 q=24.8 size=N/A time=00:00:03.22 bitrate=N/A    frame=  163 fps=3.7 q=24.8 size=N/A time=00:00:03.26 bitrate=N/A    frame=  165 fps=3.7 q=24.8 size=N/A time=00:00:03.30 bitrate=N/A    frame=  167 fps=3.7 q=24.8 size=N/A time=00:00:03.34 bitrate=N/A    frame=  170 fps=3.7 q=24.8 size=N/A time=00:00:03.40 bitrate=N/A    frame=  173 fps=3.8 q=24.8 size=N/A time=00:00:03.46 bitrate=N/A    frame=  176 fps=3.8 q=24.8 size=N/A time=00:00:03.52 bitrate=N/A    frame=  179 fps=3.8 q=24.8 size=N/A time=00:00:03.58 bitrate=N/A    frame=  181 fps=3.8 q=24.8 size=N/A time=00:00:03.62 bitrate=N/A    frame=  183 fps=3.8 q=24.8 size=N/A time=00:00:03.66 bitrate=N/A    frame=  185 fps=3.8 q=24.8 size=N/A time=00:00:03.70 bitrate=N/A    frame=  187 fps=3.8 q=24.8 size=N/A time=00:00:03.74 bitrate=N/A    frame=  189 fps=3.8 q=24.8 size=N/A time=00:00:03.78 bitrate=N/A    frame=  191 fps=3.7 q=24.8 size=N/A time=00:00:03.82 bitrate=N/A    frame=  193 fps=3.7 q=24.8 size=N/A time=00:00:03.86 bitrate=N/A    frame=  195 fps=3.7 q=24.8 size=N/A time=00:00:03.90 bitrate=N/A    frame=  197 fps=3.7 q=24.8 size=N/A time=00:00:03.94 bitrate=N/A    frame=  199 fps=3.7 q=24.8 size=N/A time=00:00:03.98 bitrate=N/A    frame=  202 fps=3.8 q=24.8 size=N/A time=00:00:04.04 bitrate=N/A    frame=  205 fps=3.8 q=24.8 size=N/A time=00:00:04.10 bitrate=N/A    frame=  207 fps=3.8 q=24.8 size=N/A time=00:00:04.14 bitrate=N/A    frame=  209 fps=3.8 q=24.8 size=N/A time=00:00:04.18 bitrate=N/A    frame=  212 fps=3.8 q=24.8 size=N/A time=00:00:04.24 bitrate=N/A    frame=  214 fps=3.7 q=24.8 size=N/A time=00:00:04.28 bitrate=N/A    frame=  216 fps=3.7 q=24.8 size=N/A time=00:00:04.32 bitrate=N/A    frame=  218 fps=3.7 q=24.8 size=N/A time=00:00:04.36 bitrate=N/A    frame=  220 fps=3.7 q=24.8 size=N/A time=00:00:04.40 bitrate=N/A    frame=  223 fps=3.7 q=24.8 size=N/A time=00:00:04.46 bitrate=N/A    frame=  226 fps=3.8 q=24.8 size=N/A time=00:00:04.52 bitrate=N/A    frame=  229 fps=3.8 q=24.8 size=N/A time=00:00:04.58 bitrate=N/A    frame=  231 fps=3.8 q=24.8 size=N/A time=00:00:04.62 bitrate=N/A    frame=  233 fps=3.8 q=24.8 size=N/A time=00:00:04.66 bitrate=N/A    frame=  235 fps=3.8 q=24.8 size=N/A time=00:00:04.70 bitrate=N/A    frame=  237 fps=3.8 q=24.8 size=N/A time=00:00:04.74 bitrate=N/A    frame=  239 fps=3.8 q=24.8 size=N/A time=00:00:04.78 bitrate=N/A    frame=  241 fps=3.8 q=24.8 size=N/A time=00:00:04.82 bitrate=N/A    frame=  244 fps=3.8 q=24.8 size=N/A time=00:00:04.88 bitrate=N/A    frame=  247 fps=3.8 q=24.8 size=N/A time=00:00:04.94 bitrate=N/A    frame=  249 fps=3.8 q=24.8 size=N/A time=00:00:04.98 bitrate=N/A    frame=  251 fps=3.7 q=24.8 size=N/A time=00:00:05.02 bitrate=N/A    frame=  253 fps=3.7 q=24.8 size=N/A time=00:00:05.06 bitrate=N/A    frame=  256 fps=3.7 q=24.8 size=N/A time=00:00:05.12 bitrate=N/A    frame=  259 fps=3.8 q=24.8 size=N/A time=00:00:05.18 bitrate=N/A    frame=  261 fps=3.7 q=24.8 size=N/A time=00:00:05.22 bitrate=N/A    frame=  264 fps=3.8 q=24.8 size=N/A time=00:00:05.28 bitrate=N/A    frame=  266 fps=3.8 q=24.8 size=N/A time=00:00:05.32 bitrate=N/A    frame=  268 fps=3.8 q=24.8 size=N/A time=00:00:05.36 bitrate=N/A    frame=  270 fps=3.8 q=24.8 size=N/A time=00:00:05.40 bitrate=N/A    frame=  273 fps=3.8 q=24.8 size=N/A time=00:00:05.46 bitrate=N/A    frame=  275 fps=3.8 q=24.8 size=N/A time=00:00:05.50 bitrate=N/A    frame=  277 fps=3.7 q=24.8 size=N/A time=00:00:05.54 bitrate=N/A    frame=  279 fps=3.7 q=24.8 size=N/A time=00:00:05.58 bitrate=N/A    frame=  282 fps=3.7 q=24.8 size=N/A time=00:00:05.64 bitrate=N/A    frame=  284 fps=3.7 q=24.8 size=N/A time=00:00:05.68 bitrate=N/A    frame=  286 fps=3.7 q=24.8 size=N/A time=00:00:05.72 bitrate=N/A    frame=  288 fps=3.7 q=24.8 size=N/A time=00:00:05.76 bitrate=N/A    frame=  290 fps=3.7 q=24.8 size=N/A time=00:00:05.80 bitrate=N/A    frame=  292 fps=3.7 q=24.8 size=N/A time=00:00:05.84 bitrate=N/A    frame=  294 fps=3.7 q=24.8 size=N/A time=00:00:05.88 bitrate=N/A    frame=  297 fps=3.7 q=24.8 size=N/A time=00:00:05.94 bitrate=N/A    frame=  299 fps=3.7 q=24.8 size=N/A time=00:00:05.98 bitrate=N/A    frame=  301 fps=3.7 q=24.8 size=N/A time=00:00:06.02 bitrate=N/A    frame=  303 fps=3.7 q=24.8 size=N/A time=00:00:06.06 bitrate=N/A    frame=  305 fps=3.7 q=24.8 size=N/A time=00:00:06.10 bitrate=N/A    frame=  307 fps=3.7 q=24.8 size=N/A time=00:00:06.14 bitrate=N/A    frame=  310 fps=3.7 q=24.8 size=N/A time=00:00:06.20 bitrate=N/A    frame=  312 fps=3.7 q=24.8 size=N/A time=00:00:06.24 bitrate=N/A    frame=  314 fps=3.7 q=24.8 size=N/A time=00:00:06.28 bitrate=N/A    frame=  316 fps=3.7 q=24.8 size=N/A time=00:00:06.32 bitrate=N/A    frame=  318 fps=3.7 q=24.8 size=N/A time=00:00:06.36 bitrate=N/A    frame=  320 fps=3.7 q=24.8 size=N/A time=00:00:06.40 bitrate=N/A    frame=  322 fps=3.7 q=24.8 size=N/A time=00:00:06.44 bitrate=N/A    frame=  324 fps=3.7 q=24.8 size=N/A time=00:00:06.48 bitrate=N/A    frame=  326 fps=3.7 q=24.8 size=N/A time=00:00:06.52 bitrate=N/A    frame=  328 fps=3.7 q=24.8 size=N/A time=00:00:06.56 bitrate=N/A    frame=  330 fps=3.7 q=24.8 size=N/A time=00:00:06.60 bitrate=N/A    frame=  332 fps=3.7 q=24.8 size=N/A time=00:00:06.64 bitrate=N/A    frame=  334 fps=3.7 q=24.8 size=N/A time=00:00:06.68 bitrate=N/A    frame=  336 fps=3.7 q=24.8 size=N/A time=00:00:06.72 bitrate=N/A    frame=  338 fps=3.7 q=24.8 size=N/A time=00:00:06.76 bitrate=N/A    frame=  340 fps=3.7 q=24.8 size=N/A time=00:00:06.80 bitrate=N/A    frame=  342 fps=3.7 q=24.8 size=N/A time=00:00:06.84 bitrate=N/A    frame=  344 fps=3.7 q=24.8 size=N/A time=00:00:06.88 bitrate=N/A    frame=  346 fps=3.7 q=24.8 size=N/A time=00:00:06.92 bitrate=N/A    frame=  348 fps=3.7 q=24.8 size=N/A time=00:00:06.96 bitrate=N/A    frame=  350 fps=3.7 q=24.8 size=N/A time=00:00:07.00 bitrate=N/A    frame=  352 fps=3.7 q=24.8 size=N/A time=00:00:07.04 bitrate=N/A    frame=  354 fps=3.7 q=24.8 size=N/A time=00:00:07.08 bitrate=N/A    frame=  356 fps=3.7 q=24.8 size=N/A time=00:00:07.12 bitrate=N/A    frame=  358 fps=3.6 q=24.8 size=N/A time=00:00:07.16 bitrate=N/A    frame=  361 fps=3.6 q=24.8 size=N/A time=00:00:07.22 bitrate=N/A    frame=  363 fps=3.6 q=24.8 size=N/A time=00:00:07.26 bitrate=N/A    frame=  365 fps=3.6 q=24.8 size=N/A time=00:00:07.30 bitrate=N/A    frame=  367 fps=3.6 q=24.8 size=N/A time=00:00:07.34 bitrate=N/A    frame=  369 fps=3.6 q=24.8 size=N/A time=00:00:07.38 bitrate=N/A    frame=  371 fps=3.6 q=24.8 size=N/A time=00:00:07.42 bitrate=N/A    frame=  374 fps=3.6 q=24.8 size=N/A time=00:00:07.48 bitrate=N/A    frame=  376 fps=3.6 q=24.8 size=N/A time=00:00:07.52 bitrate=N/A    frame=  378 fps=3.6 q=24.8 size=N/A time=00:00:07.56 bitrate=N/A    frame=  380 fps=3.6 q=24.8 size=N/A time=00:00:07.60 bitrate=N/A    frame=  382 fps=3.6 q=24.8 size=N/A time=00:00:07.64 bitrate=N/A    frame=  384 fps=3.6 q=24.8 size=N/A time=00:00:07.68 bitrate=N/A    frame=  386 fps=3.6 q=24.8 size=N/A time=00:00:07.72 bitrate=N/A    frame=  389 fps=3.6 q=24.8 size=N/A time=00:00:07.78 bitrate=N/A    frame=  391 fps=3.6 q=24.8 size=N/A time=00:00:07.82 bitrate=N/A    frame=  394 fps=3.6 q=24.8 size=N/A time=00:00:07.88 bitrate=N/A    frame=  396 fps=3.6 q=24.8 size=N/A time=00:00:07.92 bitrate=N/A    frame=  399 fps=3.6 q=24.8 size=N/A time=00:00:07.98 bitrate=N/A    frame=  401 fps=3.6 q=24.8 size=N/A time=00:00:08.02 bitrate=N/A    frame=  403 fps=3.6 q=24.8 size=N/A time=00:00:08.06 bitrate=N/A    frame=  406 fps=3.6 q=24.8 size=N/A time=00:00:08.12 bitrate=N/A    frame=  409 fps=3.6 q=24.8 size=N/A time=00:00:08.18 bitrate=N/A    frame=  412 fps=3.6 q=24.8 size=N/A time=00:00:08.24 bitrate=N/A    frame=  414 fps=3.6 q=24.8 size=N/A time=00:00:08.28 bitrate=N/A    frame=  416 fps=3.6 q=24.8 size=N/A time=00:00:08.32 bitrate=N/A    frame=  418 fps=3.6 q=24.8 size=N/A time=00:00:08.36 bitrate=N/A    frame=  420 fps=3.6 q=24.8 size=N/A time=00:00:08.40 bitrate=N/A    frame=  422 fps=3.6 q=24.8 size=N/A time=00:00:08.44 bitrate=N/A    frame=  424 fps=3.6 q=24.8 size=N/A time=00:00:08.48 bitrate=N/A    frame=  426 fps=3.6 q=24.8 size=N/A time=00:00:08.52 bitrate=N/A    frame=  429 fps=3.6 q=24.8 size=N/A time=00:00:08.58 bitrate=N/A    frame=  431 fps=3.6 q=24.8 size=N/A time=00:00:08.62 bitrate=N/A    frame=  433 fps=3.6 q=24.8 size=N/A time=00:00:08.66 bitrate=N/A    frame=  435 fps=3.6 q=24.8 size=N/A time=00:00:08.70 bitrate=N/A    frame=  437 fps=3.6 q=24.8 size=N/A time=00:00:08.74 bitrate=N/A    frame=  439 fps=3.6 q=24.8 size=N/A time=00:00:08.78 bitrate=N/A    frame=  442 fps=3.6 q=24.8 size=N/A time=00:00:08.84 bitrate=N/A    frame=  444 fps=3.6 q=24.8 size=N/A time=00:00:08.88 bitrate=N/A    frame=  447 fps=3.6 q=24.8 size=N/A time=00:00:08.94 bitrate=N/A    frame=  449 fps=3.6 q=24.8 size=N/A time=00:00:08.98 bitrate=N/A    frame=  452 fps=3.7 q=24.8 size=N/A time=00:00:09.04 bitrate=N/A    frame=  454 fps=3.6 q=24.8 size=N/A time=00:00:09.08 bitrate=N/A    frame=  457 fps=3.7 q=24.8 size=N/A time=00:00:09.14 bitrate=N/A    frame=  460 fps=3.7 q=24.8 size=N/A time=00:00:09.20 bitrate=N/A    frame=  463 fps=3.7 q=24.8 size=N/A time=00:00:09.26 bitrate=N/A    frame=  465 fps=3.7 q=24.8 size=N/A time=00:00:09.30 bitrate=N/A    frame=  467 fps=3.7 q=24.8 size=N/A time=00:00:09.34 bitrate=N/A    frame=  469 fps=3.7 q=24.8 size=N/A time=00:00:09.38 bitrate=N/A    frame=  471 fps=3.7 q=24.8 size=N/A time=00:00:09.42 bitrate=N/A    frame=  474 fps=3.7 q=24.8 size=N/A time=00:00:09.48 bitrate=N/A    frame=  477 fps=3.7 q=24.8 size=N/A time=00:00:09.54 bitrate=N/A    frame=  479 fps=3.7 q=24.8 size=N/A time=00:00:09.58 bitrate=N/A    frame=  481 fps=3.7 q=24.8 size=N/A time=00:00:09.62 bitrate=N/A    frame=  484 fps=3.7 q=24.8 size=N/A time=00:00:09.68 bitrate=N/A    frame=  486 fps=3.7 q=24.8 size=N/A time=00:00:09.72 bitrate=N/A    frame=  489 fps=3.7 q=24.8 size=N/A time=00:00:09.78 bitrate=N/A    frame=  492 fps=3.7 q=24.8 size=N/A time=00:00:09.84 bitrate=N/A    frame=  494 fps=3.7 q=24.8 size=N/A time=00:00:09.88 bitrate=N/A    frame=  496 fps=3.7 q=24.8 size=N/A time=00:00:09.92 bitrate=N/A    frame=  499 fps=3.7 q=24.8 size=N/A time=00:00:09.98 bitrate=N/A    frame=  502 fps=3.7 q=24.8 size=N/A time=00:00:10.04 bitrate=N/A    frame=  505 fps=3.7 q=24.8 size=N/A time=00:00:10.10 bitrate=N/A    frame=  507 fps=3.7 q=24.8 size=N/A time=00:00:10.14 bitrate=N/A    frame=  509 fps=3.7 q=24.8 size=N/A time=00:00:10.18 bitrate=N/A    frame=  511 fps=3.7 q=24.8 size=N/A time=00:00:10.22 bitrate=N/A    frame=  513 fps=3.7 q=24.8 size=N/A time=00:00:10.26 bitrate=N/A    frame=  516 fps=3.7 q=24.8 size=N/A time=00:00:10.32 bitrate=N/A    frame=  518 fps=3.7 q=24.8 size=N/A time=00:00:10.36 bitrate=N/A    frame=  520 fps=3.7 q=24.8 size=N/A time=00:00:10.40 bitrate=N/A    frame=  523 fps=3.7 q=24.8 size=N/A time=00:00:10.46 bitrate=N/A    frame=  526 fps=3.7 q=24.8 size=N/A time=00:00:10.52 bitrate=N/A    frame=  528 fps=3.7 q=24.8 size=N/A time=00:00:10.56 bitrate=N/A    frame=  530 fps=3.7 q=24.8 size=N/A time=00:00:10.60 bitrate=N/A    frame=  532 fps=3.7 q=24.8 size=N/A time=00:00:10.64 bitrate=N/A    frame=  534 fps=3.7 q=24.8 size=N/A time=00:00:10.68 bitrate=N/A    frame=  536 fps=3.7 q=24.8 size=N/A time=00:00:10.72 bitrate=N/A    frame=  538 fps=3.7 q=24.8 size=N/A time=00:00:10.76 bitrate=N/A    frame=  540 fps=3.7 q=24.8 size=N/A time=00:00:10.80 bitrate=N/A    frame=  542 fps=3.7 q=24.8 size=N/A time=00:00:10.84 bitrate=N/A    frame=  544 fps=3.7 q=24.8 size=N/A time=00:00:10.88 bitrate=N/A    frame=  547 fps=3.7 q=24.8 size=N/A time=00:00:10.94 bitrate=N/A    frame=  549 fps=3.7 q=24.8 size=N/A time=00:00:10.98 bitrate=N/A    frame=  551 fps=3.7 q=24.8 size=N/A time=00:00:11.02 bitrate=N/A    frame=  553 fps=3.7 q=24.8 size=N/A time=00:00:11.06 bitrate=N/A    frame=  555 fps=3.7 q=24.8 size=N/A time=00:00:11.10 bitrate=N/A    frame=  558 fps=3.7 q=24.8 size=N/A time=00:00:11.16 bitrate=N/A    frame=  560 fps=3.7 q=24.8 size=N/A time=00:00:11.20 bitrate=N/A    frame=  562 fps=3.7 q=24.8 size=N/A time=00:00:11.24 bitrate=N/A    frame=  564 fps=3.7 q=24.8 size=N/A time=00:00:11.28 bitrate=N/A    frame=  566 fps=3.7 q=24.8 size=N/A time=00:00:11.32 bitrate=N/A    frame=  568 fps=3.7 q=24.8 size=N/A time=00:00:11.36 bitrate=N/A    frame=  570 fps=3.7 q=24.8 size=N/A time=00:00:11.40 bitrate=N/A    frame=  573 fps=3.7 q=24.8 size=N/A time=00:00:11.46 bitrate=N/A    frame=  576 fps=3.7 q=24.8 size=N/A time=00:00:11.52 bitrate=N/A    frame=  578 fps=3.7 q=24.8 size=N/A time=00:00:11.56 bitrate=N/A    frame=  580 fps=3.7 q=24.8 size=N/A time=00:00:11.60 bitrate=N/A    frame=  582 fps=3.7 q=24.8 size=N/A time=00:00:11.64 bitrate=N/A    frame=  584 fps=3.7 q=24.8 size=N/A time=00:00:11.68 bitrate=N/A    frame=  587 fps=3.7 q=24.8 size=N/A time=00:00:11.74 bitrate=N/A    frame=  589 fps=3.7 q=24.8 size=N/A time=00:00:11.78 bitrate=N/A    frame=  591 fps=3.7 q=24.8 size=N/A time=00:00:11.82 bitrate=N/A    frame=  593 fps=3.7 q=24.8 size=N/A time=00:00:11.86 bitrate=N/A    frame=  595 fps=3.7 q=24.8 size=N/A time=00:00:11.90 bitrate=N/A    frame=  597 fps=3.7 q=24.8 size=N/A time=00:00:11.94 bitrate=N/A    frame=  599 fps=3.7 q=24.8 size=N/A time=00:00:11.98 bitrate=N/A    frame=  601 fps=3.7 q=24.8 size=N/A time=00:00:12.02 bitrate=N/A    frame=  603 fps=3.7 q=24.8 size=N/A time=00:00:12.06 bitrate=N/A    frame=  605 fps=3.7 q=24.8 size=N/A time=00:00:12.10 bitrate=N/A    frame=  607 fps=3.7 q=24.8 size=N/A time=00:00:12.14 bitrate=N/A    frame=  609 fps=3.7 q=24.8 size=N/A time=00:00:12.18 bitrate=N/A    frame=  611 fps=3.7 q=24.8 size=N/A time=00:00:12.22 bitrate=N/A    frame=  613 fps=3.7 q=24.8 size=N/A time=00:00:12.26 bitrate=N/A    frame=  615 fps=3.7 q=24.8 size=N/A time=00:00:12.30 bitrate=N/A    frame=  617 fps=3.7 q=24.8 size=N/A time=00:00:12.34 bitrate=N/A    frame=  619 fps=3.7 q=24.8 size=N/A time=00:00:12.38 bitrate=N/A    frame=  621 fps=3.7 q=24.8 size=N/A time=00:00:12.42 bitrate=N/A    frame=  623 fps=3.7 q=24.8 size=N/A time=00:00:12.46 bitrate=N/A    frame=  625 fps=3.7 q=24.8 size=N/A time=00:00:12.50 bitrate=N/A    frame=  627 fps=3.7 q=24.8 size=N/A time=00:00:12.54 bitrate=N/A    frame=  629 fps=3.7 q=24.8 size=N/A time=00:00:12.58 bitrate=N/A    frame=  631 fps=3.7 q=24.8 size=N/A time=00:00:12.62 bitrate=N/A    frame=  633 fps=3.7 q=24.8 size=N/A time=00:00:12.66 bitrate=N/A    frame=  635 fps=3.7 q=24.8 size=N/A time=00:00:12.70 bitrate=N/A    frame=  637 fps=3.7 q=24.8 size=N/A time=00:00:12.74 bitrate=N/A    frame=  639 fps=3.7 q=24.8 size=N/A time=00:00:12.78 bitrate=N/A    frame=  641 fps=3.6 q=24.8 size=N/A time=00:00:12.82 bitrate=N/A    frame=  643 fps=3.6 q=24.8 size=N/A time=00:00:12.86 bitrate=N/A    frame=  645 fps=3.6 q=24.8 size=N/A time=00:00:12.90 bitrate=N/A    frame=  647 fps=3.6 q=24.8 size=N/A time=00:00:12.94 bitrate=N/A    frame=  650 fps=3.7 q=24.8 size=N/A time=00:00:13.00 bitrate=N/A    frame=  653 fps=3.7 q=24.8 size=N/A time=00:00:13.06 bitrate=N/A    frame=  655 fps=3.6 q=24.8 size=N/A time=00:00:13.10 bitrate=N/A    frame=  657 fps=3.7 q=24.8 size=N/A time=00:00:13.14 bitrate=N/A    frame=  659 fps=3.6 q=24.8 size=N/A time=00:00:13.18 bitrate=N/A    frame=  661 fps=3.6 q=24.8 size=N/A time=00:00:13.22 bitrate=N/A    frame=  663 fps=3.6 q=24.8 size=N/A time=00:00:13.26 bitrate=N/A    frame=  665 fps=3.6 q=24.8 size=N/A time=00:00:13.30 bitrate=N/A    frame=  667 fps=3.6 q=24.8 size=N/A time=00:00:13.34 bitrate=N/A    frame=  670 fps=3.7 q=24.8 size=N/A time=00:00:13.40 bitrate=N/A    frame=  672 fps=3.7 q=24.8 size=N/A time=00:00:13.44 bitrate=N/A    frame=  674 fps=3.7 q=24.8 size=N/A time=00:00:13.48 bitrate=N/A    frame=  677 fps=3.7 q=24.8 size=N/A time=00:00:13.54 bitrate=N/A    frame=  679 fps=3.7 q=24.8 size=N/A time=00:00:13.58 bitrate=N/A    frame=  682 fps=3.7 q=24.8 size=N/A time=00:00:13.64 bitrate=N/A    frame=  685 fps=3.7 q=24.8 size=N/A time=00:00:13.70 bitrate=N/A    frame=  687 fps=3.7 q=24.8 size=N/A time=00:00:13.74 bitrate=N/A    frame=  689 fps=3.7 q=24.8 size=N/A time=00:00:13.78 bitrate=N/A    frame=  691 fps=3.7 q=24.8 size=N/A time=00:00:13.82 bitrate=N/A    frame=  693 fps=3.7 q=24.8 size=N/A time=00:00:13.86 bitrate=N/A    frame=  695 fps=3.7 q=24.8 size=N/A time=00:00:13.90 bitrate=N/A    frame=  697 fps=3.7 q=24.8 size=N/A time=00:00:13.94 bitrate=N/A    frame=  699 fps=3.7 q=24.8 size=N/A time=00:00:13.98 bitrate=N/A    frame=  702 fps=3.7 q=24.8 size=N/A time=00:00:14.04 bitrate=N/A    frame=  705 fps=3.7 q=24.8 size=N/A time=00:00:14.10 bitrate=N/A    frame=  707 fps=3.7 q=24.8 size=N/A time=00:00:14.14 bitrate=N/A    frame=  710 fps=3.7 q=24.8 size=N/A time=00:00:14.20 bitrate=N/A    frame=  712 fps=3.7 q=24.8 size=N/A time=00:00:14.24 bitrate=N/A    frame=  714 fps=3.7 q=24.8 size=N/A time=00:00:14.28 bitrate=N/A    frame=  716 fps=3.7 q=24.8 size=N/A time=00:00:14.32 bitrate=N/A    frame=  719 fps=3.7 q=24.8 size=N/A time=00:00:14.38 bitrate=N/A    frame=  721 fps=3.7 q=24.8 size=N/A time=00:00:14.42 bitrate=N/A    frame=  723 fps=3.7 q=24.8 size=N/A time=00:00:14.46 bitrate=N/A    frame=  725 fps=3.7 q=24.8 size=N/A time=00:00:14.50 bitrate=N/A    frame=  727 fps=3.7 q=24.8 size=N/A time=00:00:14.54 bitrate=N/A    frame=  729 fps=3.7 q=24.8 size=N/A time=00:00:14.58 bitrate=N/A    frame=  731 fps=3.7 q=24.8 size=N/A time=00:00:14.62 bitrate=N/A    frame=  734 fps=3.7 q=24.8 size=N/A time=00:00:14.68 bitrate=N/A    frame=  737 fps=3.7 q=24.8 size=N/A time=00:00:14.74 bitrate=N/A    frame=  740 fps=3.7 q=24.8 size=N/A time=00:00:14.80 bitrate=N/A    frame=  742 fps=3.7 q=24.8 size=N/A time=00:00:14.84 bitrate=N/A    frame=  744 fps=3.7 q=24.8 size=N/A time=00:00:14.88 bitrate=N/A    frame=  746 fps=3.7 q=24.8 size=N/A time=00:00:14.92 bitrate=N/A    frame=  748 fps=3.7 q=24.8 size=N/A time=00:00:14.96 bitrate=N/A    frame=  750 fps=3.7 q=24.8 size=N/A time=00:00:15.00 bitrate=N/A    frame=  752 fps=3.7 q=24.8 size=N/A time=00:00:15.04 bitrate=N/A    frame=  754 fps=3.7 q=24.8 size=N/A time=00:00:15.08 bitrate=N/A    frame=  756 fps=3.7 q=24.8 size=N/A time=00:00:15.12 bitrate=N/A    frame=  758 fps=3.7 q=24.8 size=N/A time=00:00:15.16 bitrate=N/A    frame=  761 fps=3.7 q=24.8 size=N/A time=00:00:15.22 bitrate=N/A    frame=  763 fps=3.7 q=24.8 size=N/A time=00:00:15.26 bitrate=N/A    frame=  766 fps=3.7 q=24.8 size=N/A time=00:00:15.32 bitrate=N/A    frame=  768 fps=3.7 q=24.8 size=N/A time=00:00:15.36 bitrate=N/A    frame=  770 fps=3.7 q=24.8 size=N/A time=00:00:15.40 bitrate=N/A    frame=  772 fps=3.7 q=24.8 size=N/A time=00:00:15.44 bitrate=N/A    frame=  774 fps=3.7 q=24.8 size=N/A time=00:00:15.48 bitrate=N/A    frame=  776 fps=3.7 q=24.8 size=N/A time=00:00:15.52 bitrate=N/A    frame=  778 fps=3.7 q=24.8 size=N/A time=00:00:15.56 bitrate=N/A    frame=  780 fps=3.7 q=24.8 size=N/A time=00:00:15.60 bitrate=N/A    frame=  783 fps=3.7 q=24.8 size=N/A time=00:00:15.66 bitrate=N/A    frame=  785 fps=3.7 q=24.8 size=N/A time=00:00:15.70 bitrate=N/A    frame=  787 fps=3.7 q=24.8 size=N/A time=00:00:15.74 bitrate=N/A    frame=  790 fps=3.7 q=24.8 size=N/A time=00:00:15.80 bitrate=N/A    frame=  793 fps=3.7 q=24.8 size=N/A time=00:00:15.86 bitrate=N/A    frame=  795 fps=3.7 q=24.8 size=N/A time=00:00:15.90 bitrate=N/A    frame=  798 fps=3.7 q=24.8 size=N/A time=00:00:15.96 bitrate=N/A    frame=  800 fps=3.7 q=24.8 size=N/A time=00:00:16.00 bitrate=N/A    frame=  802 fps=3.7 q=24.8 size=N/A time=00:00:16.04 bitrate=N/A    frame=  804 fps=3.7 q=24.8 size=N/A time=00:00:16.08 bitrate=N/A    frame=  806 fps=3.7 q=24.8 size=N/A time=00:00:16.12 bitrate=N/A    frame=  808 fps=3.7 q=24.8 size=N/A time=00:00:16.16 bitrate=N/A    frame=  810 fps=3.7 q=24.8 size=N/A time=00:00:16.20 bitrate=N/A    frame=  812 fps=3.7 q=24.8 size=N/A time=00:00:16.24 bitrate=N/A    frame=  815 fps=3.7 q=24.8 size=N/A time=00:00:16.30 bitrate=N/A    frame=  817 fps=3.7 q=24.8 size=N/A time=00:00:16.34 bitrate=N/A    frame=  819 fps=3.7 q=24.8 size=N/A time=00:00:16.38 bitrate=N/A    frame=  822 fps=3.7 q=24.8 size=N/A time=00:00:16.44 bitrate=N/A    frame=  824 fps=3.7 q=24.8 size=N/A time=00:00:16.48 bitrate=N/A    frame=  826 fps=3.7 q=24.8 size=N/A time=00:00:16.52 bitrate=N/A    frame=  828 fps=3.7 q=24.8 size=N/A time=00:00:16.56 bitrate=N/A    frame=  831 fps=3.7 q=24.8 size=N/A time=00:00:16.62 bitrate=N/A    frame=  833 fps=3.7 q=24.8 size=N/A time=00:00:16.66 bitrate=N/A    frame=  836 fps=3.7 q=24.8 size=N/A time=00:00:16.72 bitrate=N/A    frame=  838 fps=3.7 q=24.8 size=N/A time=00:00:16.76 bitrate=N/A    frame=  840 fps=3.7 q=24.8 size=N/A time=00:00:16.80 bitrate=N/A    frame=  842 fps=3.7 q=24.8 size=N/A time=00:00:16.84 bitrate=N/A    frame=  844 fps=3.7 q=24.8 size=N/A time=00:00:16.88 bitrate=N/A    frame=  846 fps=3.7 q=24.8 size=N/A time=00:00:16.92 bitrate=N/A    frame=  848 fps=3.7 q=24.8 size=N/A time=00:00:16.96 bitrate=N/A    frame=  850 fps=3.7 q=24.8 size=N/A time=00:00:17.00 bitrate=N/A    frame=  852 fps=3.7 q=24.8 size=N/A time=00:00:17.04 bitrate=N/A    frame=  854 fps=3.7 q=24.8 size=N/A time=00:00:17.08 bitrate=N/A    frame=  856 fps=3.7 q=24.8 size=N/A time=00:00:17.12 bitrate=N/A    frame=  858 fps=3.7 q=24.8 size=N/A time=00:00:17.16 bitrate=N/A    frame=  861 fps=3.7 q=24.8 size=N/A time=00:00:17.22 bitrate=N/A    frame=  864 fps=3.7 q=24.8 size=N/A time=00:00:17.28 bitrate=N/A    frame=  866 fps=3.7 q=24.8 size=N/A time=00:00:17.32 bitrate=N/A    frame=  869 fps=3.7 q=24.8 size=N/A time=00:00:17.38 bitrate=N/A    frame=  872 fps=3.7 q=24.8 size=N/A time=00:00:17.44 bitrate=N/A    frame=  874 fps=3.7 q=24.8 size=N/A time=00:00:17.48 bitrate=N/A    frame=  876 fps=3.7 q=24.8 size=N/A time=00:00:17.52 bitrate=N/A    frame=  879 fps=3.7 q=24.8 size=N/A time=00:00:17.58 bitrate=N/A    frame=  881 fps=3.7 q=24.8 size=N/A time=00:00:17.62 bitrate=N/A    frame=  883 fps=3.7 q=24.8 size=N/A time=00:00:17.66 bitrate=N/A    frame=  886 fps=3.7 q=24.8 size=N/A time=00:00:17.72 bitrate=N/A    frame=  888 fps=3.7 q=24.8 size=N/A time=00:00:17.76 bitrate=N/A    frame=  890 fps=3.7 q=24.8 size=N/A time=00:00:17.80 bitrate=N/A    frame=  892 fps=3.7 q=24.8 size=N/A time=00:00:17.84 bitrate=N/A    frame=  894 fps=3.7 q=24.8 size=N/A time=00:00:17.88 bitrate=N/A    frame=  896 fps=3.7 q=24.8 size=N/A time=00:00:17.92 bitrate=N/A    frame=  899 fps=3.7 q=24.8 size=N/A time=00:00:17.98 bitrate=N/A    frame=  901 fps=3.7 q=24.8 size=N/A time=00:00:18.02 bitrate=N/A    frame=  903 fps=3.7 q=24.8 size=N/A time=00:00:18.06 bitrate=N/A    frame=  906 fps=3.7 q=24.8 size=N/A time=00:00:18.12 bitrate=N/A    frame=  908 fps=3.7 q=24.8 size=N/A time=00:00:18.16 bitrate=N/A    frame=  910 fps=3.7 q=24.8 size=N/A time=00:00:18.20 bitrate=N/A    frame=  912 fps=3.7 q=24.8 size=N/A time=00:00:18.24 bitrate=N/A    frame=  914 fps=3.7 q=24.8 size=N/A time=00:00:18.28 bitrate=N/A    frame=  917 fps=3.7 q=24.8 size=N/A time=00:00:18.34 bitrate=N/A    frame=  919 fps=3.7 q=24.8 size=N/A time=00:00:18.38 bitrate=N/A    frame=  922 fps=3.7 q=24.8 size=N/A time=00:00:18.44 bitrate=N/A    frame=  924 fps=3.7 q=24.8 size=N/A time=00:00:18.48 bitrate=N/A    frame=  926 fps=3.7 q=24.8 size=N/A time=00:00:18.52 bitrate=N/A    frame=  928 fps=3.7 q=24.8 size=N/A time=00:00:18.56 bitrate=N/A    frame=  930 fps=3.7 q=24.8 size=N/A time=00:00:18.60 bitrate=N/A    frame=  932 fps=3.7 q=24.8 size=N/A time=00:00:18.64 bitrate=N/A    frame=  934 fps=3.7 q=24.8 size=N/A time=00:00:18.68 bitrate=N/A    frame=  937 fps=3.7 q=24.8 size=N/A time=00:00:18.74 bitrate=N/A    frame=  939 fps=3.7 q=24.8 size=N/A time=00:00:18.78 bitrate=N/A    frame=  941 fps=3.7 q=24.8 size=N/A time=00:00:18.82 bitrate=N/A    frame=  943 fps=3.7 q=24.8 size=N/A time=00:00:18.86 bitrate=N/A    frame=  946 fps=3.7 q=24.8 size=N/A time=00:00:18.92 bitrate=N/A    frame=  948 fps=3.7 q=24.8 size=N/A time=00:00:18.96 bitrate=N/A    frame=  950 fps=3.7 q=24.8 size=N/A time=00:00:19.00 bitrate=N/A    frame=  953 fps=3.7 q=24.8 size=N/A time=00:00:19.06 bitrate=N/A    frame=  955 fps=3.7 q=24.8 size=N/A time=00:00:19.10 bitrate=N/A    frame=  957 fps=3.7 q=24.8 size=N/A time=00:00:19.14 bitrate=N/A    frame=  959 fps=3.7 q=24.8 size=N/A time=00:00:19.18 bitrate=N/A    frame=  961 fps=3.7 q=24.8 size=N/A time=00:00:19.22 bitrate=N/A    frame=  964 fps=3.7 q=24.8 size=N/A time=00:00:19.28 bitrate=N/A    frame=  967 fps=3.7 q=24.8 size=N/A time=00:00:19.34 bitrate=N/A    frame=  969 fps=3.7 q=24.8 size=N/A time=00:00:19.38 bitrate=N/A    frame=  971 fps=3.7 q=24.8 size=N/A time=00:00:19.42 bitrate=N/A    frame=  973 fps=3.7 q=24.8 size=N/A time=00:00:19.46 bitrate=N/A    frame=  975 fps=3.7 q=24.8 size=N/A time=00:00:19.50 bitrate=N/A    frame=  978 fps=3.7 q=24.8 size=N/A time=00:00:19.56 bitrate=N/A    frame=  980 fps=3.7 q=24.8 size=N/A time=00:00:19.60 bitrate=N/A    frame=  983 fps=3.7 q=24.8 size=N/A time=00:00:19.66 bitrate=N/A    frame=  985 fps=3.7 q=24.8 size=N/A time=00:00:19.70 bitrate=N/A    frame=  988 fps=3.7 q=24.8 size=N/A time=00:00:19.76 bitrate=N/A    frame=  990 fps=3.7 q=24.8 size=N/A time=00:00:19.80 bitrate=N/A    frame=  992 fps=3.7 q=24.8 size=N/A time=00:00:19.84 bitrate=N/A    frame=  994 fps=3.7 q=24.8 size=N/A time=00:00:19.88 bitrate=N/A    frame=  997 fps=3.7 q=24.8 size=N/A time=00:00:19.94 bitrate=N/A    frame= 1000 fps=3.7 q=24.8 size=N/A time=00:00:20.00 bitrate=N/A    frame= 1003 fps=3.7 q=24.8 size=N/A time=00:00:20.06 bitrate=N/A    frame= 1005 fps=3.7 q=24.8 size=N/A time=00:00:20.10 bitrate=N/A    frame= 1007 fps=3.7 q=24.8 size=N/A time=00:00:20.14 bitrate=N/A    frame= 1009 fps=3.7 q=24.8 size=N/A time=00:00:20.18 bitrate=N/A    frame= 1011 fps=3.7 q=24.8 size=N/A time=00:00:20.22 bitrate=N/A    frame= 1014 fps=3.7 q=24.8 size=N/A time=00:00:20.28 bitrate=N/A    frame= 1016 fps=3.7 q=24.8 size=N/A time=00:00:20.32 bitrate=N/A    frame= 1018 fps=3.7 q=24.8 size=N/A time=00:00:20.36 bitrate=N/A    frame= 1020 fps=3.7 q=24.8 size=N/A time=00:00:20.40 bitrate=N/A    frame= 1023 fps=3.7 q=24.8 size=N/A time=00:00:20.46 bitrate=N/A    frame= 1025 fps=3.7 q=24.8 size=N/A time=00:00:20.50 bitrate=N/A    frame= 1028 fps=3.7 q=24.8 size=N/A time=00:00:20.56 bitrate=N/A    frame= 1030 fps=3.7 q=24.8 size=N/A time=00:00:20.60 bitrate=N/A    frame= 1032 fps=3.7 q=24.8 size=N/A time=00:00:20.64 bitrate=N/A    frame= 1034 fps=3.7 q=24.8 size=N/A time=00:00:20.68 bitrate=N/A    frame= 1037 fps=3.7 q=24.8 size=N/A time=00:00:20.74 bitrate=N/A    frame= 1040 fps=3.7 q=24.8 size=N/A time=00:00:20.80 bitrate=N/A    frame= 1042 fps=3.7 q=24.8 size=N/A time=00:00:20.84 bitrate=N/A    frame= 1045 fps=3.7 q=24.8 size=N/A time=00:00:20.90 bitrate=N/A    frame= 1047 fps=3.7 q=24.8 size=N/A time=00:00:20.94 bitrate=N/A    frame= 1050 fps=3.7 q=24.8 size=N/A time=00:00:21.00 bitrate=N/A    frame= 1052 fps=3.7 q=24.8 size=N/A time=00:00:21.04 bitrate=N/A    frame= 1054 fps=3.7 q=24.8 size=N/A time=00:00:21.08 bitrate=N/A    frame= 1057 fps=3.7 q=24.8 size=N/A time=00:00:21.14 bitrate=N/A    frame= 1059 fps=3.7 q=24.8 size=N/A time=00:00:21.18 bitrate=N/A    frame= 1061 fps=3.7 q=24.8 size=N/A time=00:00:21.22 bitrate=N/A    frame= 1063 fps=3.7 q=24.8 size=N/A time=00:00:21.26 bitrate=N/A    frame= 1065 fps=3.7 q=24.8 size=N/A time=00:00:21.30 bitrate=N/A    frame= 1068 fps=3.7 q=24.8 size=N/A time=00:00:21.36 bitrate=N/A    frame= 1071 fps=3.7 q=24.8 size=N/A time=00:00:21.42 bitrate=N/A    frame= 1073 fps=3.7 q=24.8 size=N/A time=00:00:21.46 bitrate=N/A    frame= 1075 fps=3.7 q=24.8 size=N/A time=00:00:21.50 bitrate=N/A    frame= 1078 fps=3.7 q=24.8 size=N/A time=00:00:21.56 bitrate=N/A    frame= 1080 fps=3.7 q=24.8 size=N/A time=00:00:21.60 bitrate=N/A    frame= 1082 fps=3.7 q=24.8 size=N/A time=00:00:21.64 bitrate=N/A    frame= 1084 fps=3.7 q=24.8 size=N/A time=00:00:21.68 bitrate=N/A    frame= 1087 fps=3.7 q=24.8 size=N/A time=00:00:21.74 bitrate=N/A    frame= 1089 fps=3.7 q=24.8 size=N/A time=00:00:21.78 bitrate=N/A    frame= 1091 fps=3.7 q=24.8 size=N/A time=00:00:21.82 bitrate=N/A    frame= 1094 fps=3.7 q=24.8 size=N/A time=00:00:21.88 bitrate=N/A    frame= 1097 fps=3.7 q=24.8 size=N/A time=00:00:21.94 bitrate=N/A    frame= 1099 fps=3.7 q=24.8 size=N/A time=00:00:21.98 bitrate=N/A    frame= 1101 fps=3.7 q=24.8 size=N/A time=00:00:22.02 bitrate=N/A    frame= 1103 fps=3.7 q=24.8 size=N/A time=00:00:22.06 bitrate=N/A    frame= 1105 fps=3.7 q=24.8 size=N/A time=00:00:22.10 bitrate=N/A    frame= 1107 fps=3.7 q=24.8 size=N/A time=00:00:22.14 bitrate=N/A    frame= 1109 fps=3.7 q=24.8 size=N/A time=00:00:22.18 bitrate=N/A    frame= 1112 fps=3.7 q=24.8 size=N/A time=00:00:22.24 bitrate=N/A    frame= 1114 fps=3.7 q=24.8 size=N/A time=00:00:22.28 bitrate=N/A    frame= 1117 fps=3.7 q=24.8 size=N/A time=00:00:22.34 bitrate=N/A    frame= 1120 fps=3.7 q=24.8 size=N/A time=00:00:22.40 bitrate=N/A    frame= 1123 fps=3.7 q=24.8 size=N/A time=00:00:22.46 bitrate=N/A    frame= 1125 fps=3.7 q=24.8 size=N/A time=00:00:22.50 bitrate=N/A    frame= 1127 fps=3.7 q=24.8 size=N/A time=00:00:22.54 bitrate=N/A    frame= 1129 fps=3.7 q=24.8 size=N/A time=00:00:22.58 bitrate=N/A    frame= 1131 fps=3.7 q=24.8 size=N/A time=00:00:22.62 bitrate=N/A    frame= 1133 fps=3.7 q=24.8 size=N/A time=00:00:22.66 bitrate=N/A    frame= 1135 fps=3.7 q=24.8 size=N/A time=00:00:22.70 bitrate=N/A    frame= 1137 fps=3.7 q=24.8 size=N/A time=00:00:22.74 bitrate=N/A    frame= 1139 fps=3.7 q=24.8 size=N/A time=00:00:22.78 bitrate=N/A    frame= 1141 fps=3.7 q=24.8 size=N/A time=00:00:22.82 bitrate=N/A    frame= 1143 fps=3.7 q=24.8 size=N/A time=00:00:22.86 bitrate=N/A    frame= 1146 fps=3.7 q=24.8 size=N/A time=00:00:22.92 bitrate=N/A    frame= 1149 fps=3.7 q=24.8 size=N/A time=00:00:22.98 bitrate=N/A    frame= 1151 fps=3.7 q=24.8 size=N/A time=00:00:23.02 bitrate=N/A    frame= 1154 fps=3.7 q=24.8 size=N/A time=00:00:23.08 bitrate=N/A    frame= 1156 fps=3.7 q=24.8 size=N/A time=00:00:23.12 bitrate=N/A    frame= 1158 fps=3.7 q=24.8 size=N/A time=00:00:23.16 bitrate=N/A    frame= 1160 fps=3.7 q=24.8 size=N/A time=00:00:23.20 bitrate=N/A    frame= 1162 fps=3.7 q=24.8 size=N/A time=00:00:23.24 bitrate=N/A    frame= 1164 fps=3.7 q=24.8 size=N/A time=00:00:23.28 bitrate=N/A    frame= 1167 fps=3.7 q=24.8 size=N/A time=00:00:23.34 bitrate=N/A    frame= 1169 fps=3.7 q=24.8 size=N/A time=00:00:23.38 bitrate=N/A    frame= 1171 fps=3.7 q=24.8 size=N/A time=00:00:23.42 bitrate=N/A    frame= 1174 fps=3.7 q=24.8 size=N/A time=00:00:23.48 bitrate=N/A    frame= 1174 fps=3.7 q=24.8 Lsize=N/A time=00:00:23.48 bitrate=N/A    
video:1048648kB audio:0kB subtitle:0kB other streams:0kB global headers:0kB muxing overhead: unknown
+ turkic load DJI_0052_30m_szarvasragas_jo_homokmegy_20180603_napos_napraforgo_T3 /home/horvathandras/vatic/vatic/videos/DJI_0052_30m_szarvasragas_jo_homokmegy_20180603_napos_napraforgo_T3 $'Pozit\303\255vROI' $'Negat\303\255vROI' $'T\303\272r\303\241s' '~Friss' '~1-2Hetes' '~Régebbi' '~Egyéb1' '~Egyéb2' '~Egyéb3' $'R\303\241g\303\241s' '~Friss' '~1-2Hetes' '~Régebbi' '~Egyéb1' '~Egyéb2' '~Egyéb3' $'T\303\266r\303\251s' '~Friss' '~1-2Hetes' '~Régebbi' '~Egyéb1' '~Egyéb2' '~Egyéb3' $'Tapos\303\241s' '~Friss' '~1-2Hetes' '~Régebbi' '~Egyéb1' '~Egyéb2' '~Egyéb3' $'Eg\303\251szs\303\251gesN\303\266v\303\251ny' $'Egy\303\251b1' $'Egy\303\251b2' $'Egy\303\251b3' $'Egy\303\251b4' $'Egy\303\251b5' Bizonytalan $'M\305\261vel\305\221\303\272t' $'Gktapos\303\241s' $'Vet\305\221hiba' $'Sz\303\251ld\303\266nt\303\251s' $'J\303\251gk\303\241r' $'Belv\303\255z' $'Asz\303\241ly' $'Er\303\263zi\303\263' $'Egyszik\305\261Gyom' $'K\303\251tszik\305\261Gyom' $'Egy\303\251bN\303\266vv\303\251delmiPR' --offline --title '$filenameNoDot Video' --length 1000 --description 'vatic annotation'
+ turkic publish --offline
+ mkdir /home/horvathandras/vatic/vatic/public/videothumbnails/DJI_0052_30m_szarvasragas_jo_homokmegy_20180603_napos_napraforgo_T3
+ cp /home/horvathandras/vatic/vatic/videos/DJI_0052_30m_szarvasragas_jo_homokmegy_20180603_napos_napraforgo_T3/0/0/31.jpg /home/horvathandras/vatic/vatic/public/videothumbnails/DJI_0052_30m_szarvasragas_jo_homokmegy_20180603_napos_napraforgo_T3/thumb.jpg
